<mxfile host="app.diagrams.net" modified="2023-09-27T05:16:56.859Z" agent="Mozilla/5.0 (Windows NT 10.0; Win64; x64) AppleWebKit/537.36 (KHTML, like Gecko) Chrome/116.0.0.0 Safari/537.36" etag="0AzEgVDkZn6-NrmmAZww" version="21.8.2" type="github">
  <diagram name="페이지-1" id="FYF3cKrLI6nf7TRAht3x">
    <mxGraphModel dx="1434" dy="790" grid="1" gridSize="10" guides="1" tooltips="1" connect="1" arrows="1" fold="1" page="1" pageScale="1" pageWidth="827" pageHeight="1169" math="0" shadow="0">
      <root>
        <mxCell id="0" />
        <mxCell id="1" parent="0" />
        <mxCell id="QMl7d-OOqJZpvJkt7D3K-1" value="사용자" style="shape=umlActor;verticalLabelPosition=bottom;verticalAlign=top;html=1;outlineConnect=0;rounded=1;" parent="1" vertex="1">
          <mxGeometry x="370" y="250" width="60" height="100" as="geometry" />
        </mxCell>
        <mxCell id="QMl7d-OOqJZpvJkt7D3K-5" value="회원가입" style="ellipse;whiteSpace=wrap;html=1;" parent="1" vertex="1">
          <mxGeometry x="120" y="360" width="110" height="70" as="geometry" />
        </mxCell>
        <mxCell id="QMl7d-OOqJZpvJkt7D3K-6" value="로그인" style="ellipse;whiteSpace=wrap;html=1;" parent="1" vertex="1">
          <mxGeometry x="170" y="450" width="110" height="70" as="geometry" />
        </mxCell>
        <mxCell id="QMl7d-OOqJZpvJkt7D3K-7" value="메인 페이지" style="ellipse;whiteSpace=wrap;html=1;" parent="1" vertex="1">
          <mxGeometry x="280" y="520" width="110" height="70" as="geometry" />
        </mxCell>
        <mxCell id="QMl7d-OOqJZpvJkt7D3K-9" value="마이페이지" style="ellipse;whiteSpace=wrap;html=1;" parent="1" vertex="1">
          <mxGeometry x="524" y="450" width="110" height="70" as="geometry" />
        </mxCell>
        <mxCell id="QMl7d-OOqJZpvJkt7D3K-10" value="회원정보 수정" style="ellipse;whiteSpace=wrap;html=1;" parent="1" vertex="1">
          <mxGeometry x="414" y="520" width="110" height="70" as="geometry" />
        </mxCell>
        <mxCell id="QMl7d-OOqJZpvJkt7D3K-11" value="상품 검색" style="ellipse;whiteSpace=wrap;html=1;" parent="1" vertex="1">
          <mxGeometry x="580" y="360" width="110" height="70" as="geometry" />
        </mxCell>
        <mxCell id="QMl7d-OOqJZpvJkt7D3K-13" value="" style="endArrow=classic;html=1;rounded=0;entryX=0.982;entryY=0.386;entryDx=0;entryDy=0;entryPerimeter=0;" parent="1" target="QMl7d-OOqJZpvJkt7D3K-5" edge="1">
          <mxGeometry relative="1" as="geometry">
            <mxPoint x="360" y="350" as="sourcePoint" />
            <mxPoint x="620" y="530" as="targetPoint" />
          </mxGeometry>
        </mxCell>
        <mxCell id="QMl7d-OOqJZpvJkt7D3K-15" value="" style="endArrow=classic;html=1;rounded=0;" parent="1" target="QMl7d-OOqJZpvJkt7D3K-6" edge="1">
          <mxGeometry width="50" height="50" relative="1" as="geometry">
            <mxPoint x="370" y="360" as="sourcePoint" />
            <mxPoint x="600" y="500" as="targetPoint" />
          </mxGeometry>
        </mxCell>
        <mxCell id="QMl7d-OOqJZpvJkt7D3K-16" value="" style="endArrow=classic;html=1;rounded=0;entryX=0.5;entryY=0;entryDx=0;entryDy=0;" parent="1" target="QMl7d-OOqJZpvJkt7D3K-7" edge="1">
          <mxGeometry width="50" height="50" relative="1" as="geometry">
            <mxPoint x="390" y="380" as="sourcePoint" />
            <mxPoint x="600" y="500" as="targetPoint" />
          </mxGeometry>
        </mxCell>
        <mxCell id="QMl7d-OOqJZpvJkt7D3K-17" value="" style="endArrow=classic;html=1;rounded=0;entryX=0.5;entryY=0;entryDx=0;entryDy=0;" parent="1" target="QMl7d-OOqJZpvJkt7D3K-10" edge="1">
          <mxGeometry width="50" height="50" relative="1" as="geometry">
            <mxPoint x="410" y="380" as="sourcePoint" />
            <mxPoint x="600" y="500" as="targetPoint" />
          </mxGeometry>
        </mxCell>
        <mxCell id="QMl7d-OOqJZpvJkt7D3K-19" value="" style="endArrow=classic;html=1;rounded=0;entryX=0.055;entryY=0.314;entryDx=0;entryDy=0;entryPerimeter=0;" parent="1" target="QMl7d-OOqJZpvJkt7D3K-9" edge="1">
          <mxGeometry width="50" height="50" relative="1" as="geometry">
            <mxPoint x="430" y="360" as="sourcePoint" />
            <mxPoint x="600" y="500" as="targetPoint" />
          </mxGeometry>
        </mxCell>
        <mxCell id="QMl7d-OOqJZpvJkt7D3K-20" value="" style="endArrow=classic;html=1;rounded=0;entryX=0;entryY=0.5;entryDx=0;entryDy=0;" parent="1" target="QMl7d-OOqJZpvJkt7D3K-11" edge="1">
          <mxGeometry width="50" height="50" relative="1" as="geometry">
            <mxPoint x="440" y="350" as="sourcePoint" />
            <mxPoint x="600" y="500" as="targetPoint" />
          </mxGeometry>
        </mxCell>
      </root>
    </mxGraphModel>
  </diagram>
</mxfile>
